<svg width="24" height="24" viewBox="0 0 24 24" xmlns="http://www.w3.org/2000/svg"><title>Freelancer Monthly Membership, Level 1 Badge</title><g fill="none" fill-rule="evenodd"><path d="M9.57 23.54l-6.14-3.59A4.925 4.925 0 0 1 1 15.692V8.51c0-1.758.925-3.382 2.428-4.26L9.57.66a4.8 4.8 0 0 1 4.858 0l6.143 3.59A4.93 4.93 0 0 1 23 8.51v7.182c0 1.756-.926 3.38-2.43 4.258l-6.142 3.59a4.798 4.798 0 0 1-4.857 0" fill="#34B5E8"/><path d="M14.11 8.095l.747 1.006 4.44-1.012-5.187.007zM8.578 19.148l2.633-2.596-1.585-1.716-1.048 4.312zM12.35 9.037l1.93.1-.73-.978-1.2.877zM7.67 8l.37.824 2.058.103L7.67 8zm1.455 5.584l2.16-4.116L5 9.148l4.125 4.436zm2.691-4.088L9.47 13.963l2.084 2.252 2.284-2.254.73-4.326-2.752-.138z" fill="#FFF"/></g></svg>